<svg width="47" height="40" viewBox="0 0 47 40" fill="none" xmlns="http://www.w3.org/2000/svg">
<path d="M0.199012 23.0854C0.199012 17.9893 17.7439 7.10773 24.5387 7.10773C31.3335 7.10773 46.8922 18.3873 46.8922 23.4834V27.0159C46.8922 32.112 33.9067 31.9663 24.5387 31.9663C14.2542 31.9663 0 31.5647 0 26.4686L0.199012 23.0854Z" fill="#2D8CFF"/>
<path d="M0.40625 21.6924C2.86902 16.9658 17.3061 7.11475 24.6379 7.11475C31.9697 7.11475 44.528 17.1897 46.2694 21.4436L34.9844 22.3392C34.9844 22.3392 34.0921 22.3392 24.9273 22.3392C15.7626 22.3392 16.5343 22.3392 16.5343 22.3392L0.40625 21.6924Z" fill="#0150AF"/>
<path d="M18.1602 16.0229H30.8496C33.6098 16.0232 35.8475 18.2608 35.8477 21.021C35.8477 23.7814 33.61 26.0198 30.8496 26.02H18.1602C15.3998 26.0198 13.1621 23.7814 13.1621 21.021C13.1623 18.2607 15.3999 16.0232 18.1602 16.0229Z" fill="white" stroke="#13294B"/>
<path d="M20.6631 18.5855C21.8621 18.5855 22.7422 19.4493 22.7422 20.4068C22.7421 21.3643 21.8621 22.2281 20.6631 22.2281C19.4641 22.2281 18.5841 21.3643 18.584 20.4068C18.584 19.4493 19.464 18.5855 20.6631 18.5855Z" fill="#13294B" stroke="#13294B"/>
<path d="M21.8965 20.2499C22.4682 20.2499 22.9316 19.7865 22.9316 19.2148C22.9316 18.6431 22.4682 18.1796 21.8965 18.1796C21.3248 18.1796 20.8613 18.6431 20.8613 19.2148C20.8613 19.7865 21.3248 20.2499 21.8965 20.2499Z" fill="white"/>
<path d="M26.9658 18.5855C28.1649 18.5855 29.0449 19.4493 29.0449 20.4068C29.0448 21.3643 28.1648 22.2281 26.9658 22.2281C25.7668 22.2281 24.8868 21.3643 24.8867 20.4068C24.8867 19.4493 25.7667 18.5855 26.9658 18.5855Z" fill="#13294B" stroke="#13294B"/>
<path d="M28.1992 20.2499C28.7709 20.2499 29.2344 19.7864 29.2344 19.2147C29.2344 18.643 28.7709 18.1796 28.1992 18.1796C27.6275 18.1796 27.1641 18.643 27.1641 19.2147C27.1641 19.7864 27.6275 20.2499 28.1992 20.2499Z" fill="white"/>
<path d="M24.4987 4.3451C25.6986 4.3451 26.6713 3.37241 26.6713 2.17255C26.6713 0.972683 25.6986 0 24.4987 0C23.2989 0 22.3262 0.972683 22.3262 2.17255C22.3262 3.37241 23.2989 4.3451 24.4987 4.3451Z" fill="#2D8CFF"/>
<path d="M24.4727 4.29144L24.4727 7.10771" stroke="#2D8CFF" stroke-linecap="round"/>
<path d="M35.2976 38.0426L36.1236 27.4431L42.7562 30.4663L35.2976 38.0426Z" fill="#2D8CFF"/>
</svg>
